<?xml version="1.0" encoding="UTF-8" standalone="no"?>
<!-- Created with Inkscape (http://www.inkscape.org/) -->

<svg
   xmlns:dc="http://purl.org/dc/elements/1.1/"
   xmlns:cc="http://creativecommons.org/ns#"
   xmlns:rdf="http://www.w3.org/1999/02/22-rdf-syntax-ns#"
   xmlns:svg="http://www.w3.org/2000/svg"
   xmlns="http://www.w3.org/2000/svg"
   xmlns:sodipodi="http://sodipodi.sourceforge.net/DTD/sodipodi-0.dtd"
   xmlns:inkscape="http://www.inkscape.org/namespaces/inkscape"
   width="1000"
   height="1000"
   viewBox="0 0 264.6 264.6"
   version="1.1"
   id="svg8"
   inkscape:version="0.92.3 (2405546, 2018-03-11)"
   sodipodi:docname="thumbnail.svg"
   inkscape:export-filename="/home/vincerubinetti/Desktop/thumbnail.png"
   inkscape:export-xdpi="96"
   inkscape:export-ydpi="96">
  <defs
     id="defs2" />
  <sodipodi:namedview
     id="base"
     pagecolor="#ffffff"
     bordercolor="#666666"
     borderopacity="1.0"
     inkscape:pageopacity="0.0"
     inkscape:pageshadow="2"
     inkscape:zoom="0.5241"
     inkscape:cx="492.3"
     inkscape:cy="377.8"
     inkscape:document-units="mm"
     inkscape:current-layer="layer1"
     showgrid="false"
     inkscape:window-width="1920"
     inkscape:window-height="1454"
     inkscape:window-x="1920"
     inkscape:window-y="37"
     inkscape:window-maximized="0"
     units="px" />
  <metadata
     id="metadata5">
    <rdf:RDF>
      <cc:Work
         rdf:about="">
        <dc:format>image/svg+xml</dc:format>
        <dc:type
           rdf:resource="http://purl.org/dc/dcmitype/StillImage" />
        <dc:title></dc:title>
      </cc:Work>
    </rdf:RDF>
  </metadata>
  <g
     inkscape:label="Layer 1"
     inkscape:groupmode="layer"
     id="layer1"
     transform="translate(0,-32.56)">
    <g
       id="g1401"
       transform="matrix(0.1415,-0.1026,0.1431,0.1214,101.8,173.2)"
       style="stroke:#404040;stroke-opacity:1">
      <g
         id="g1382"
         transform="scale(0.9)"
         style="stroke:#404040;stroke-opacity:1">
        <!-- M -->
        <path
           id="path1368"
           d="M -125,125 V -125 L 0,45 125,-125 V 125"
           class="letter"
           inkscape:connector-curvature="0"
           style="fill:none;stroke:#404040;stroke-width:50;stroke-linecap:round;stroke-linejoin:round;stroke-opacity:1" />
        <!-- left bracket -->
        <path
           id="path1370"
           d="M -200,-250 -330,0 -200,250"
           class="bracket"
           inkscape:connector-curvature="0"
           style="fill:none;stroke:#404040;stroke-width:50;stroke-linecap:round;stroke-linejoin:round;stroke-opacity:1" />
        <!-- right bracket -->
        <path
           id="path1372"
           d="M 200,250 330,0 200,-250"
           class="bracket"
           inkscape:connector-curvature="0"
           style="fill:none;stroke:#404040;stroke-width:50;stroke-linecap:round;stroke-linejoin:round;stroke-opacity:1" />
        <!-- left line -->
        <path
           id="path1374"
           d="M -330,0 H -370"
           class="line"
           inkscape:connector-curvature="0"
           style="fill:none;stroke:#404040;stroke-width:50;stroke-linecap:round;stroke-opacity:1" />
        <!-- right line -->
        <path
           id="path1376"
           d="M 330,0 H 370"
           class="line"
           inkscape:connector-curvature="0"
           style="fill:none;stroke:#404040;stroke-width:50;stroke-linecap:round;stroke-opacity:1" />
        <!-- left circle -->
        <circle
           id="circle1378"
           r="30"
           cy="0"
           cx="-455"
           class="circle"
           style="fill:none;stroke:#404040;stroke-width:30;stroke-opacity:1" />
        <!-- right circle -->
        <circle
           id="circle1380"
           r="30"
           cy="0"
           cx="455"
           class="circle"
           style="fill:none;stroke:#404040;stroke-width:30;stroke-opacity:1" />
      </g>
    </g>
    <rect
       style="opacity:1;fill:none;fill-opacity:1;stroke:#404040;stroke-width:7.9975;stroke-miterlimit:4;stroke-dasharray:none;stroke-opacity:1"
       id="rect1433"
       width="200.3"
       height="306.4"
       x="-169.8"
       y="54.46"
       rx="0.1131"
       ry="0.1119"
       transform="matrix(0.8096,-0.587,0.7625,0.647,0,0)" />
    <path
       style="fill:#ffffff;fill-opacity:1;stroke:none;stroke-width:0.0938px;stroke-linecap:butt;stroke-linejoin:miter;stroke-opacity:1"
       d="M 182.8,102.1 171.6,120.2 204.5,148.8 216,129.8 Z"
       id="path1635"
       inkscape:connector-curvature="0" />
    <path
       id="path1449"
       d="M 238.4,74.1 231.1,86.75 C 230.4,88.03 229.2,88.67 228.3,88.24 L 209.5,77.18 C 208.7,76.76 208.6,75.38 209.5,73.99 L 216.8,61.34 C 219.8,56.24 224.9,53.58 228.1,55.39 L 238.2,61.34 C 241.5,63.15 241.5,68.78 238.4,74.1 Z M 203.1,85.05 160.9,157 158,180.2 C 157.6,183.4 160,184.7 162.7,182.9 L 182.7,168.9 224.8,97.59 C 225.5,96.31 225.5,94.83 224.7,94.41 L 205.9,83.46 C 205.1,83.03 203.9,83.67 203.1,85.05 Z M 177.8,144 C 176.7,143.5 176.7,141.8 177.7,140.3 L 202.4,97.9 C 203.3,96.42 204.8,95.67 205.7,96.1 206.5,96.74 206.6,98.33 205.7,99.92 L 181,142.2 C 180,143.8 178.7,144.6 177.8,144 Z M 172.2,162.2 180,158.3 180.4,164.7 169.6,172.1 164.4,169.1 166,156.9 172,153.8 Z"
       inkscape:connector-curvature="0"
       style="fill:#ad1457;fill-opacity:1;stroke-width:0.1769" />
  </g>
</svg>
