<?xml version="1.0" encoding="UTF-8" standalone="no"?>
<!-- Created with Inkscape (http://www.inkscape.org/) -->

<svg
   xmlns:dc="http://purl.org/dc/elements/1.1/"
   xmlns:cc="http://creativecommons.org/ns#"
   xmlns:rdf="http://www.w3.org/1999/02/22-rdf-syntax-ns#"
   xmlns:svg="http://www.w3.org/2000/svg"
   xmlns="http://www.w3.org/2000/svg"
   xmlns:sodipodi="http://sodipodi.sourceforge.net/DTD/sodipodi-0.dtd"
   xmlns:inkscape="http://www.inkscape.org/namespaces/inkscape"
   width="1000"
   height="1000"
   viewBox="0 0 264.6 264.6"
   version="1.1"
   id="svg8"
   inkscape:version="0.92.3 (2405546, 2018-03-11)"
   sodipodi:docname="thumbnail.svg"
   inkscape:export-filename="/home/vincerubinetti/Desktop/thumbnail.png"
   inkscape:export-xdpi="96"
   inkscape:export-ydpi="96">
  <defs
     id="defs2" />
  <sodipodi:namedview
     id="base"
     pagecolor="#ffffff"
     bordercolor="#666666"
     borderopacity="1.0"
     inkscape:pageopacity="0.0"
     inkscape:pageshadow="2"
     inkscape:zoom="1.048"
     inkscape:cx="411.8"
     inkscape:cy="814.6"
     inkscape:document-units="mm"
     inkscape:current-layer="layer1"
     showgrid="false"
     inkscape:window-width="1920"
     inkscape:window-height="1454"
     inkscape:window-x="1920"
     inkscape:window-y="37"
     inkscape:window-maximized="0"
     units="px" />
  <metadata
     id="metadata5">
    <rdf:RDF>
      <cc:Work
         rdf:about="">
        <dc:format>image/svg+xml</dc:format>
        <dc:type
           rdf:resource="http://purl.org/dc/dcmitype/StillImage" />
        <dc:title />
      </cc:Work>
    </rdf:RDF>
  </metadata>
  <g
     inkscape:label="Layer 1"
     inkscape:groupmode="layer"
     id="layer1"
     transform="translate(0,-32.56)">
    <g
       id="g1401"
       transform="matrix(0.1415,-0.1026,0.1431,0.1214,101.8,173.2)"
       style="stroke:#404040;stroke-opacity:1">
      <g
         id="g1382"
         transform="scale(0.9)"
         style="stroke:#404040;stroke-opacity:1">
        <!-- M -->
        <path
           id="path1368"
           d="M -125,125 V -125 L 0,45 125,-125 V 125"
           class="letter"
           inkscape:connector-curvature="0"
           style="fill:none;stroke:#404040;stroke-width:50;stroke-linecap:round;stroke-linejoin:round;stroke-opacity:1" />
        <!-- left bracket -->
        <path
           id="path1370"
           d="M -200,-250 -330,0 -200,250"
           class="bracket"
           inkscape:connector-curvature="0"
           style="fill:none;stroke:#404040;stroke-width:50;stroke-linecap:round;stroke-linejoin:round;stroke-opacity:1" />
        <!-- right bracket -->
        <path
           id="path1372"
           d="M 200,250 330,0 200,-250"
           class="bracket"
           inkscape:connector-curvature="0"
           style="fill:none;stroke:#404040;stroke-width:50;stroke-linecap:round;stroke-linejoin:round;stroke-opacity:1" />
        <!-- left line -->
        <path
           id="path1374"
           d="M -330,0 H -370"
           class="line"
           inkscape:connector-curvature="0"
           style="fill:none;stroke:#404040;stroke-width:50;stroke-linecap:round;stroke-opacity:1" />
        <!-- right line -->
        <path
           id="path1376"
           d="M 330,0 H 370"
           class="line"
           inkscape:connector-curvature="0"
           style="fill:none;stroke:#404040;stroke-width:50;stroke-linecap:round;stroke-opacity:1" />
        <!-- left circle -->
        <circle
           id="circle1378"
           r="30"
           cy="0"
           cx="-455"
           class="circle"
           style="fill:none;stroke:#404040;stroke-width:30;stroke-opacity:1" />
        <!-- right circle -->
        <circle
           id="circle1380"
           r="30"
           cy="0"
           cx="455"
           class="circle"
           style="fill:none;stroke:#404040;stroke-width:30;stroke-opacity:1" />
      </g>
    </g>
    <rect
       style="opacity:1;fill:none;fill-opacity:1;stroke:#404040;stroke-width:7.9975;stroke-miterlimit:4;stroke-dasharray:none;stroke-opacity:1"
       id="rect1433"
       width="200.3"
       height="306.4"
       x="-169.8"
       y="54.46"
       rx="0.1131"
       ry="0.1119"
       transform="matrix(0.8096,-0.587,0.7625,0.647,0,0)" />
    <path
       style="fill:#ffffff;fill-opacity:1;stroke:none;stroke-width:0.2646px;stroke-linecap:butt;stroke-linejoin:miter;stroke-opacity:1"
       d="M 183.6,127.7 193.8,114.6 219.4,136.6 209.1,149.1 Z"
       id="path887"
       inkscape:connector-curvature="0" />
    <path
       id="path1449"
       d="M 239.9,104.7 232.2,114.2 C 231.6,115.2 230.1,115.4 229.5,114.9 L 212.2,100.8 C 211.5,100.4 211.4,99.09 212.4,98.07 L 220.1,88.12 C 223.3,84.17 228.3,82.94 231.1,85.18 L 240.3,92.96 C 243.4,95.43 243.1,100.7 239.9,104.7 Z M 205.7,106.5 161.7,160.3 157.7,180.1 C 157.2,182.8 159.5,184.6 161.9,183.5 L 181.8,175.6 225.8,122.2 C 226.2,121.1 226.5,119.9 225.7,119.4 L 208.5,105.6 C 207.8,104.9 206.6,105.4 205.7,106.5 Z M 178.6,152.5 C 177.3,152 177.7,150.6 178.7,149.4 L 204.4,117.5 C 205.3,116.4 206.8,116.1 207.7,116.8 208.4,117.3 208.2,118.9 207.3,120 L 181.4,151.7 C 180.6,152.9 179.3,153.3 178.6,152.5 Z M 172.3,167.5 179.8,165.8 179.7,171.4 169.3,175.7 164.4,171.8 166.6,161.4 172.7,159.9 Z"
       inkscape:connector-curvature="0"
       style="fill:#ad1457;fill-opacity:1;stroke-width:0.163" />
  </g>
</svg>
